<svg width="36" height="36" viewBox="0 0 36 36" fill="none" xmlns="http://www.w3.org/2000/svg">
<path d="M34.875 18C34.8762 16.708 34.5595 15.4356 33.9529 14.295C33.3462 13.1543 32.4682 12.1804 31.3963 11.4591C30.3245 10.7379 29.0916 10.2914 27.8064 10.1591C26.5212 10.0268 25.2233 10.2127 24.0269 10.7005C22.8306 11.1883 21.7726 11.9629 20.9463 12.956C20.12 13.9492 19.5507 15.1304 19.2887 16.3955C19.0266 17.6606 19.0799 18.9708 19.4437 20.2104C19.8076 21.4501 20.4708 22.5812 21.375 23.5041V31.5C21.3749 31.6919 21.4238 31.8806 21.5172 32.0482C21.6105 32.2158 21.7452 32.3568 21.9084 32.4577C22.0716 32.5586 22.2578 32.6161 22.4495 32.6247C22.6412 32.6333 22.8319 32.5927 23.0034 32.5069L27 30.5072L30.9966 32.5069C31.1681 32.5927 31.3588 32.6333 31.5505 32.6247C31.7422 32.6161 31.9284 32.5586 32.0916 32.4577C32.2548 32.3568 32.3895 32.2158 32.4828 32.0482C32.5762 31.8806 32.6251 31.6919 32.625 31.5V23.5041C34.0679 22.0355 34.876 20.0588 34.875 18ZM27 12.375C28.1125 12.375 29.2001 12.7049 30.1251 13.323C31.0501 13.9411 31.7711 14.8196 32.1968 15.8474C32.6226 16.8752 32.734 18.0062 32.5169 19.0974C32.2999 20.1885 31.7641 21.1908 30.9775 21.9775C30.1908 22.7641 29.1885 23.2999 28.0974 23.5169C27.0062 23.734 25.8752 23.6226 24.8474 23.1968C23.8196 22.7711 22.9411 22.0501 22.323 21.1251C21.7049 20.2001 21.375 19.1125 21.375 18C21.375 16.5082 21.9676 15.0774 23.0225 14.0225C24.0774 12.9676 25.5082 12.375 27 12.375ZM27.5034 28.2431C27.3471 28.1649 27.1748 28.1242 27 28.1242C26.8252 28.1242 26.6529 28.1649 26.4966 28.2431L23.625 29.6803V25.1142C24.6796 25.6151 25.8325 25.875 27 25.875C28.1675 25.875 29.3204 25.6151 30.375 25.1142V29.6803L27.5034 28.2431ZM19.125 27C19.125 27.2984 19.0065 27.5845 18.7955 27.7955C18.5845 28.0065 18.2984 28.125 18 28.125H5.625C5.02826 28.125 4.45597 27.8879 4.03401 27.466C3.61205 27.044 3.375 26.4717 3.375 25.875V7.875C3.375 7.27826 3.61205 6.70597 4.03401 6.28401C4.45597 5.86205 5.02826 5.625 5.625 5.625H30.375C30.9717 5.625 31.544 5.86205 31.966 6.28401C32.3879 6.70597 32.625 7.27826 32.625 7.875C32.625 8.17337 32.5065 8.45952 32.2955 8.6705C32.0845 8.88147 31.7984 9 31.5 9C31.2016 9 30.9155 8.88147 30.7045 8.6705C30.4935 8.45952 30.375 8.17337 30.375 7.875H5.625V25.875H18C18.2984 25.875 18.5845 25.9935 18.7955 26.2045C19.0065 26.4155 19.125 26.7016 19.125 27ZM16.875 19.125C16.875 19.4234 16.7565 19.7095 16.5455 19.9205C16.3345 20.1315 16.0484 20.25 15.75 20.25H10.125C9.82663 20.25 9.54048 20.1315 9.3295 19.9205C9.11853 19.7095 9 19.4234 9 19.125C9 18.8266 9.11853 18.5405 9.3295 18.3295C9.54048 18.1185 9.82663 18 10.125 18H15.75C16.0484 18 16.3345 18.1185 16.5455 18.3295C16.7565 18.5405 16.875 18.8266 16.875 19.125ZM16.875 14.625C16.875 14.9234 16.7565 15.2095 16.5455 15.4205C16.3345 15.6315 16.0484 15.75 15.75 15.75H10.125C9.82663 15.75 9.54048 15.6315 9.3295 15.4205C9.11853 15.2095 9 14.9234 9 14.625C9 14.3266 9.11853 14.0405 9.3295 13.8295C9.54048 13.6185 9.82663 13.5 10.125 13.5H15.75C16.0484 13.5 16.3345 13.6185 16.5455 13.8295C16.7565 14.0405 16.875 14.3266 16.875 14.625Z" fill="#5568D0"/>
</svg>
