<svg width="36" height="36" viewBox="0 0 36 36" fill="none" xmlns="http://www.w3.org/2000/svg">
<path d="M32.3996 12.8175V23.3997C32.3996 24.3544 32.0203 25.2701 31.3452 25.9452C30.6701 26.6204 29.7544 26.9997 28.7996 26.9997H7.19961C6.24483 26.9997 5.32916 26.6204 4.65402 25.9452C3.97889 25.2701 3.59961 24.3544 3.59961 23.3997V12.5997C3.59961 11.6449 3.97889 10.7292 4.65402 10.0541C5.32916 9.37894 6.24483 8.99966 7.19961 8.99966H28.5818L26.7818 10.7997H7.19961C6.72222 10.7997 6.26438 10.9893 5.92682 11.3269C5.58925 11.6644 5.39961 12.1223 5.39961 12.5997V23.3997C5.39961 23.877 5.58925 24.3349 5.92682 24.6724C6.26438 25.01 6.72222 25.1997 7.19961 25.1997H28.7996C29.277 25.1997 29.7348 25.01 30.0724 24.6724C30.41 24.3349 30.5996 23.877 30.5996 23.3997V14.6175L32.3996 12.8175ZM7.19961 15.2997C7.19961 15.061 7.29443 14.832 7.46321 14.6633C7.632 14.4945 7.86091 14.3997 8.09961 14.3997H11.6996C11.9383 14.3997 12.1672 14.4945 12.336 14.6633C12.5048 14.832 12.5996 15.061 12.5996 15.2997C12.5996 15.5384 12.5048 15.7673 12.336 15.9361C12.1672 16.1048 11.9383 16.1997 11.6996 16.1997H8.09961C7.86091 16.1997 7.632 16.1048 7.46321 15.9361C7.29443 15.7673 7.19961 15.5384 7.19961 15.2997ZM7.19961 20.6997C7.19961 20.461 7.29443 20.232 7.46321 20.0633C7.632 19.8945 7.86091 19.7997 8.09961 19.7997H16.1996C16.4383 19.7997 16.6672 19.8945 16.836 20.0633C17.0048 20.232 17.0996 20.461 17.0996 20.6997C17.0996 20.9383 17.0048 21.1673 16.836 21.3361C16.6672 21.5048 16.4383 21.5997 16.1996 21.5997H8.09961C7.86091 21.5997 7.632 21.5048 7.46321 21.3361C7.29443 21.1673 7.19961 20.9383 7.19961 20.6997ZM32.1368 9.26246C32.2206 9.34606 32.2871 9.44537 32.3325 9.55471C32.3779 9.66406 32.4012 9.78127 32.4012 9.89966C32.4012 10.018 32.3779 10.1353 32.3325 10.2446C32.2871 10.3539 32.2206 10.4533 32.1368 10.5369L21.3368 21.3369C21.1678 21.5059 20.9386 21.6008 20.6996 21.6008C20.4606 21.6008 20.2314 21.5059 20.0624 21.3369C19.8934 21.1679 19.7985 20.9387 19.7985 20.6997C19.7985 20.4607 19.8934 20.2315 20.0624 20.0625L30.8624 9.26246C30.946 9.17864 31.0453 9.11214 31.1547 9.06677C31.264 9.0214 31.3812 8.99805 31.4996 8.99805C31.618 8.99805 31.7352 9.0214 31.8446 9.06677C31.9539 9.11214 32.0532 9.17864 32.1368 9.26246Z" fill="#5568D0"/>
</svg>
