<svg width="36" height="36" viewBox="0 0 36 36" fill="none" xmlns="http://www.w3.org/2000/svg">
<circle cx="18" cy="18" r="18" fill="#ECECEC"/>
<path d="M24.683 11.1821C24.9999 10.8804 25.4217 10.7135 25.8593 10.7168C26.2969 10.7202 26.7161 10.8933 27.0285 11.1999C27.3408 11.5064 27.5219 11.9222 27.5335 12.3597C27.545 12.7972 27.3862 13.222 27.0905 13.5446L18.113 24.7721C17.9586 24.9384 17.7723 25.0718 17.5652 25.1644C17.3581 25.257 17.1344 25.307 16.9075 25.3112C16.6807 25.3154 16.4553 25.2738 16.2449 25.1889C16.0345 25.104 15.8434 24.9775 15.683 24.8171L9.72948 18.8636C9.56368 18.7091 9.4307 18.5228 9.33847 18.3158C9.24624 18.1088 9.19664 17.8854 9.19265 17.6588C9.18865 17.4322 9.23033 17.2071 9.3152 16.997C9.40007 16.7869 9.5264 16.596 9.68664 16.4358C9.84688 16.2755 10.0378 16.1492 10.2479 16.0643C10.458 15.9795 10.6831 15.9378 10.9097 15.9418C11.1362 15.9458 11.3597 15.9954 11.5667 16.0876C11.7737 16.1798 11.96 16.3128 12.1145 16.4786L16.826 21.1879L24.6402 11.2316C24.6543 11.2143 24.6671 11.1978 24.683 11.1821Z" fill="#5568D0"/>
</svg>
