<svg width="36" height="36" viewBox="0 0 36 36" fill="none" xmlns="http://www.w3.org/2000/svg">
<path d="M30 12.6667V10C30 7.8 28.2 6 26 6H20.6667C19.64 6 18.7067 6.4 18 7.04C17.2933 6.4 16.36 6 15.3333 6H10C7.8 6 6 7.8 6 10V12.6667C3.8 12.6667 2 14.4667 2 16.6667V23.3333C2 25.5333 3.8 27.3333 6 27.3333V30H8.66667V27.3333H27.3333V30H30V27.3333C32.2 27.3333 34 25.5333 34 23.3333V16.6667C34 14.4667 32.2 12.6667 30 12.6667ZM20.6667 8.66667H26C26.7333 8.66667 27.3333 9.26667 27.3333 10V13.7067C26.52 14.44 26 15.4933 26 16.6667V19.3333H19.3333V10C19.3333 9.26667 19.9333 8.66667 20.6667 8.66667ZM8.66667 10C8.66667 9.26667 9.26667 8.66667 10 8.66667H15.3333C16.0667 8.66667 16.6667 9.26667 16.6667 10V19.3333H10V16.6667C10 15.4933 9.48 14.44 8.66667 13.7067V10ZM31.3333 23.3333C31.3333 24.0667 30.7333 24.6667 30 24.6667H6C5.26667 24.6667 4.66667 24.0667 4.66667 23.3333V16.6667C4.66667 15.9333 5.26667 15.3333 6 15.3333C6.73333 15.3333 7.33333 15.9333 7.33333 16.6667V22H28.6667V16.6667C28.6667 15.9333 29.2667 15.3333 30 15.3333C30.7333 15.3333 31.3333 15.9333 31.3333 16.6667V23.3333Z" fill="#5568D0"/>
</svg>
