<svg width="36" height="36" viewBox="0 0 36 36" fill="none" xmlns="http://www.w3.org/2000/svg">
<path d="M15.7652 5.49685C16.0466 5.1826 16.3911 4.93121 16.7762 4.75911C17.1613 4.587 17.5784 4.49805 18.0002 4.49805C18.422 4.49805 18.8391 4.587 19.2242 4.75911C19.6093 4.93121 19.9538 5.1826 20.2352 5.49685L21.2852 6.66985C21.5853 7.0051 21.9569 7.26855 22.3726 7.4407C22.7883 7.61285 23.2374 7.68928 23.6867 7.66435L25.2617 7.57735C25.683 7.55413 26.1044 7.62003 26.4985 7.77074C26.8925 7.92145 27.2504 8.15358 27.5486 8.45199C27.8469 8.75039 28.0789 9.10835 28.2294 9.5025C28.3799 9.89664 28.4456 10.3181 28.4222 10.7394L28.3352 12.3129C28.3105 12.7619 28.387 13.2107 28.5592 13.6261C28.7313 14.0415 28.9947 14.4129 29.3297 14.7129L30.5027 15.7629C30.8172 16.0442 31.0688 16.3888 31.241 16.7741C31.4133 17.1593 31.5023 17.5766 31.5023 17.9986C31.5023 18.4206 31.4133 18.8379 31.241 19.2231C31.0688 19.6084 30.8172 19.953 30.5027 20.2344L29.3297 21.2844C28.9944 21.5844 28.731 21.9561 28.5588 22.3718C28.3867 22.7875 28.3103 23.2366 28.3352 23.6859L28.4222 25.2609C28.4454 25.6821 28.3795 26.1035 28.2288 26.4976C28.0781 26.8917 27.846 27.2495 27.5476 27.5478C27.2492 27.8461 26.8912 28.078 26.497 28.2286C26.1029 28.3791 25.6814 28.4448 25.2602 28.4214L23.6867 28.3344C23.2377 28.3097 22.7889 28.3862 22.3735 28.5583C21.958 28.7305 21.5866 28.9938 21.2867 29.3289L20.2367 30.5019C19.9553 30.8164 19.6107 31.068 19.2255 31.2402C18.8402 31.4125 18.423 31.5015 18.0009 31.5015C17.5789 31.5015 17.1617 31.4125 16.7764 31.2402C16.3912 31.068 16.0466 30.8164 15.7652 30.5019L14.7152 29.3289C14.4151 28.9936 14.0434 28.7302 13.6277 28.558C13.212 28.3859 12.7629 28.3094 12.3137 28.3344L10.7387 28.4214C10.3174 28.4446 9.896 28.3787 9.50192 28.228C9.10785 28.0773 8.75 27.8451 8.45174 27.5467C8.15348 27.2483 7.92151 26.8904 7.77099 26.4962C7.62046 26.1021 7.55477 25.6806 7.57819 25.2594L7.66519 23.6859C7.68989 23.2369 7.61334 22.788 7.4412 22.3726C7.26906 21.9572 7.00573 21.5858 6.67069 21.2859L5.49769 20.2359C5.18319 19.9545 4.93159 19.6099 4.75934 19.2246C4.58708 18.8394 4.49805 18.4221 4.49805 18.0001C4.49805 17.5781 4.58708 17.1608 4.75934 16.7756C4.93159 16.3903 5.18319 16.0457 5.49769 15.7644L6.67069 14.7144C7.00594 14.4143 7.26938 14.0426 7.44153 13.6269C7.61368 13.2112 7.69012 12.7621 7.66519 12.3129L7.57819 10.7379C7.55519 10.3167 7.62125 9.89545 7.77205 9.50156C7.92286 9.10767 8.15503 8.75 8.45341 8.4519C8.75179 8.15381 9.10968 7.92198 9.50371 7.77154C9.89774 7.62111 10.3191 7.55545 10.7402 7.57885L12.3137 7.66585C12.7627 7.69056 13.2115 7.61401 13.6269 7.44186C14.0423 7.26972 14.4138 7.00639 14.7137 6.67135L15.7652 5.49685Z" stroke="#5568D0" stroke-width="2"/>
<path d="M14.25 14.25H14.265V14.265H14.25V14.25ZM21.75 21.75H21.765V21.765H21.75V21.75Z" stroke="#5568D0" stroke-width="3" stroke-linejoin="round"/>
<path d="M22.5 13.5L13.5 22.5" stroke="#5568D0" stroke-width="2" stroke-linecap="round" stroke-linejoin="round"/>
</svg>
