<svg width="36" height="36" viewBox="0 0 36 36" fill="none" xmlns="http://www.w3.org/2000/svg">
<path d="M7.875 6C6.58207 6 5.34209 6.51361 4.42785 7.42785C3.51361 8.34209 3 9.58207 3 10.875V23.625C3 24.9179 3.51361 26.1579 4.42785 27.0721C5.34209 27.9864 6.58207 28.5 7.875 28.5H28.125C28.7652 28.5 29.3991 28.3739 29.9906 28.1289C30.582 27.8839 31.1195 27.5248 31.5721 27.0721C32.0248 26.6195 32.3839 26.082 32.6289 25.4906C32.8739 24.8991 33 24.2652 33 23.625V10.875C33 10.2348 32.8739 9.60088 32.6289 9.00942C32.3839 8.41796 32.0248 7.88054 31.5721 7.42785C31.1195 6.97517 30.582 6.61608 29.9906 6.37109C29.3991 6.1261 28.7652 6 28.125 6H7.875ZM5.25 10.875C5.25 9.426 6.426 8.25 7.875 8.25H12V10.062C11.3091 9.76 10.5431 9.67331 9.80217 9.81325C9.06121 9.95319 8.37965 10.3133 7.84645 10.8465C7.31325 11.3797 6.95319 12.0612 6.81325 12.8022C6.67331 13.5431 6.76 14.3091 7.062 15H5.25V10.875ZM14.25 13.5C14.25 13.2033 14.338 12.9133 14.5028 12.6666C14.6676 12.42 14.9019 12.2277 15.176 12.1142C15.4501 12.0006 15.7517 11.9709 16.0426 12.0288C16.3336 12.0867 16.6009 12.2296 16.8107 12.4393C17.0204 12.6491 17.1633 12.9164 17.2212 13.2074C17.2791 13.4983 17.2494 13.7999 17.1358 14.074C17.0223 14.3481 16.83 14.5824 16.5834 14.7472C16.3367 14.912 16.0467 15 15.75 15H14.25V13.5ZM12 15H10.5C10.2033 15 9.91332 14.912 9.66665 14.7472C9.41997 14.5824 9.22771 14.3481 9.11418 14.074C9.00065 13.7999 8.97094 13.4983 9.02882 13.2074C9.0867 12.9164 9.22956 12.6491 9.43934 12.4393C9.64912 12.2296 9.91639 12.0867 10.2074 12.0288C10.4983 11.9709 10.7999 12.0006 11.074 12.1142C11.3481 12.2277 11.5824 12.42 11.7472 12.6666C11.912 12.9133 12 13.2033 12 13.5V15ZM12 18.84V26.25H7.875C7.17881 26.25 6.51113 25.9734 6.01884 25.4812C5.52656 24.9889 5.25 24.3212 5.25 23.625V17.25H10.41L7.83 19.83C7.71947 19.933 7.63082 20.0572 7.56933 20.1952C7.50784 20.3332 7.47478 20.4822 7.47211 20.6332C7.46945 20.7843 7.49723 20.9343 7.55382 21.0744C7.6104 21.2145 7.69461 21.3417 7.80144 21.4486C7.90827 21.5554 8.03552 21.6396 8.1756 21.6962C8.31569 21.7528 8.46573 21.7806 8.61678 21.7779C8.76784 21.7752 8.91681 21.7422 9.05481 21.6807C9.19281 21.6192 9.31701 21.5305 9.42 21.42L12 18.84ZM14.25 26.25V18.84L16.83 21.42C16.933 21.5305 17.0572 21.6192 17.1952 21.6807C17.3332 21.7422 17.4822 21.7752 17.6332 21.7779C17.7843 21.7806 17.9343 21.7528 18.0744 21.6962C18.2145 21.6396 18.3417 21.5554 18.4486 21.4486C18.5554 21.3417 18.6396 21.2145 18.6962 21.0744C18.7528 20.9343 18.7806 20.7843 18.7779 20.6332C18.7752 20.4822 18.7422 20.3332 18.6807 20.1952C18.6192 20.0572 18.5305 19.933 18.42 19.83L15.84 17.25H30.75V23.625C30.75 23.9697 30.6821 24.3111 30.5502 24.6295C30.4183 24.948 30.2249 25.2374 29.9812 25.4812C29.7374 25.7249 29.448 25.9183 29.1295 26.0502C28.8111 26.1821 28.4697 26.25 28.125 26.25H14.25ZM14.25 10.062V8.25H28.125C29.574 8.25 30.75 9.426 30.75 10.875V15H19.188C19.49 14.3091 19.5767 13.5431 19.4368 12.8022C19.2968 12.0612 18.9367 11.3797 18.4035 10.8465C17.8703 10.3133 17.1888 9.95319 16.4478 9.81325C15.7069 9.67331 14.9409 9.76 14.25 10.062Z" fill="#5568D0"/>
</svg>
