<svg width="28" height="28" viewBox="0 0 28 28" fill="none" xmlns="http://www.w3.org/2000/svg">
<path d="M14 2.25C16.5859 2.25 19.0658 3.27723 20.8943 5.10571C22.7228 6.93419 23.75 9.41414 23.75 12C23.75 16.12 20.855 20.61 15.14 25.518C14.8222 25.791 14.4171 25.9409 13.9981 25.9405C13.5792 25.9402 13.1743 25.7895 12.857 25.516L12.479 25.188C7.017 20.408 4.25 16.028 4.25 12C4.25 9.41414 5.27723 6.93419 7.10571 5.10571C8.93419 3.27723 11.4141 2.25 14 2.25ZM14 3.75C11.812 3.75 9.71354 4.61919 8.16637 6.16637C6.61919 7.71354 5.75 9.81196 5.75 12C5.75 15.502 8.298 19.537 13.464 24.057L13.837 24.38C13.8824 24.419 13.9402 24.4404 14 24.4404C14.0598 24.4404 14.1176 24.419 14.163 24.38C19.579 19.728 22.25 15.585 22.25 12C22.25 10.9166 22.0366 9.8438 21.622 8.84286C21.2074 7.84193 20.5997 6.93245 19.8336 6.16637C19.0675 5.40029 18.1581 4.7926 17.1571 4.37799C16.1562 3.96339 15.0834 3.75 14 3.75ZM14 8.25C14.9946 8.25 15.9484 8.64509 16.6517 9.34835C17.3549 10.0516 17.75 11.0054 17.75 12C17.75 12.9946 17.3549 13.9484 16.6517 14.6517C15.9484 15.3549 14.9946 15.75 14 15.75C13.0054 15.75 12.0516 15.3549 11.3483 14.6517C10.6451 13.9484 10.25 12.9946 10.25 12C10.25 11.0054 10.6451 10.0516 11.3483 9.34835C12.0516 8.64509 13.0054 8.25 14 8.25ZM14 9.75C13.4033 9.75 12.831 9.98705 12.409 10.409C11.9871 10.831 11.75 11.4033 11.75 12C11.75 12.5967 11.9871 13.169 12.409 13.591C12.831 14.0129 13.4033 14.25 14 14.25C14.5967 14.25 15.169 14.0129 15.591 13.591C16.0129 13.169 16.25 12.5967 16.25 12C16.25 11.4033 16.0129 10.831 15.591 10.409C15.169 9.98705 14.5967 9.75 14 9.75Z" fill="#5568D0"/>
</svg>
