<svg width="346" height="68" viewBox="0 0 346 68" fill="none" xmlns="http://www.w3.org/2000/svg">
<path d="M3.52344 41C3.0612 41 2.69987 40.8665 2.43945 40.5996C2.17904 40.3262 2.04883 39.9453 2.04883 39.457V28.4414C2.04883 27.9596 2.17904 27.5853 2.43945 27.3184C2.69987 27.0449 3.0612 26.9082 3.52344 26.9082H10.2422C10.6523 26.9082 10.9779 27.0156 11.2188 27.2305C11.4596 27.4453 11.5801 27.7415 11.5801 28.1191C11.5801 28.4967 11.4564 28.7962 11.209 29.0176C10.9681 29.2324 10.6458 29.3398 10.2422 29.3398H4.99805V32.2012H7.73242C9.21029 32.2012 10.4082 32.6016 11.3262 33.4023C12.2507 34.2031 12.7129 35.2546 12.7129 36.5566C12.7129 37.8848 12.2604 38.959 11.3555 39.7793C10.457 40.5931 9.2819 41 7.83008 41H3.52344ZM4.99805 38.6465H7.09766C7.92448 38.6465 8.5625 38.4674 9.01172 38.1094C9.46745 37.7513 9.69531 37.2337 9.69531 36.5566C9.69531 35.8796 9.46745 35.3587 9.01172 34.9941C8.5625 34.6296 7.92122 34.4473 7.08789 34.4473H4.99805V38.6465ZM15.2227 41.0977C14.6693 41.0977 14.2298 40.9707 13.9043 40.7168C13.5853 40.4629 13.4258 40.1178 13.4258 39.6816C13.4258 39.3626 13.5299 39.1055 13.7383 38.9102C13.9466 38.7083 14.2168 38.6074 14.5488 38.6074H14.5781C15.138 38.6074 15.5482 38.373 15.8086 37.9043C16.0755 37.429 16.2383 36.625 16.2969 35.4922L16.6582 28.4414C16.6842 27.9466 16.821 27.569 17.0684 27.3086C17.3158 27.0417 17.6706 26.9082 18.1328 26.9082H24.9492C25.4115 26.9082 25.7728 27.0449 26.0332 27.3184C26.2936 27.5853 26.4238 27.9596 26.4238 28.4414V39.6523C26.4238 40.1341 26.2936 40.5117 26.0332 40.7852C25.7728 41.0521 25.4115 41.1855 24.9492 41.1855C24.487 41.1855 24.1257 41.0521 23.8652 40.7852C23.6048 40.5117 23.4746 40.1341 23.4746 39.6523V29.3398H19.3633L19.0215 35.4336C18.9173 37.3346 18.5527 38.7539 17.9277 39.6914C17.3092 40.6289 16.4076 41.0977 15.2227 41.0977ZM30.4668 41.1855C29.9785 41.1855 29.5977 41.0456 29.3242 40.7656C29.0573 40.4857 28.9238 40.0885 28.9238 39.5742V28.2461C28.9238 27.7708 29.054 27.3965 29.3145 27.123C29.5749 26.8496 29.9362 26.7129 30.3984 26.7129C30.8542 26.7129 31.2122 26.8496 31.4727 27.123C31.7331 27.39 31.8633 27.7643 31.8633 28.2461V36.4492H31.9805L37.8496 27.6992C38.0905 27.3411 38.3477 27.0872 38.6211 26.9375C38.8945 26.7878 39.2396 26.7129 39.6562 26.7129C40.151 26.7129 40.5352 26.8561 40.8086 27.1426C41.082 27.4225 41.2188 27.8132 41.2188 28.3145V39.6523C41.2188 40.1341 41.0885 40.5117 40.8281 40.7852C40.5742 41.0521 40.2161 41.1855 39.7539 41.1855C39.2917 41.1855 38.9303 41.0521 38.6699 40.7852C38.4095 40.5117 38.2793 40.1341 38.2793 39.6523V31.4688H38.1621L32.3027 40.1895C32.0618 40.554 31.8014 40.8112 31.5215 40.9609C31.2415 41.1107 30.89 41.1855 30.4668 41.1855ZM53.6016 40.7754C53.3477 41.0488 52.9993 41.1855 52.5566 41.1855C52.1139 41.1855 51.7624 41.0488 51.502 40.7754C51.248 40.502 51.1211 40.1309 51.1211 39.6621V34.8086H51.0527L46.0918 40.5703C45.7598 40.9805 45.3529 41.1855 44.8711 41.1855C44.474 41.1855 44.1419 41.0553 43.875 40.7949C43.6146 40.5345 43.4844 40.209 43.4844 39.8184C43.4844 39.4212 43.6081 39.0729 43.8555 38.7734L48.416 33.6367L44.0801 28.8418C43.8717 28.5944 43.7676 28.3079 43.7676 27.9824C43.7676 27.6178 43.8945 27.3151 44.1484 27.0742C44.4089 26.8333 44.7344 26.7129 45.125 26.7129C45.5352 26.7129 45.8737 26.8789 46.1406 27.2109L51.043 32.875H51.1211V28.2363C51.1211 27.7741 51.2513 27.4062 51.5117 27.1328C51.7721 26.8529 52.1204 26.7129 52.5566 26.7129C52.9928 26.7129 53.3411 26.8529 53.6016 27.1328C53.862 27.4062 53.9922 27.7741 53.9922 28.2363V32.875H54.0605L59.002 27.2109C59.2884 26.8789 59.627 26.7129 60.0176 26.7129C60.4017 26.7129 60.7207 26.8366 60.9746 27.084C61.2285 27.3249 61.3555 27.6276 61.3555 27.9922C61.3555 28.3047 61.2513 28.5781 61.043 28.8125L56.6875 33.5879L61.2773 38.7441C61.5247 39.0436 61.6484 39.3919 61.6484 39.7891C61.6484 40.1862 61.5117 40.5182 61.2383 40.7852C60.9714 41.0521 60.6393 41.1855 60.2422 41.1855C59.7604 41.1855 59.3535 40.9805 59.0215 40.5703L54.0508 34.8086H53.9922V39.6621C53.9922 40.1309 53.862 40.502 53.6016 40.7754ZM64.8027 41.1855C64.347 41.1855 63.9824 41.0618 63.709 40.8145C63.4421 40.5605 63.3086 40.222 63.3086 39.7988C63.3086 39.5449 63.3737 39.2324 63.5039 38.8613L67.3516 28.3828C67.5599 27.8099 67.8431 27.39 68.2012 27.123C68.5592 26.8496 69.015 26.7129 69.5684 26.7129C70.1413 26.7129 70.6068 26.8464 70.9648 27.1133C71.3294 27.3737 71.6159 27.7936 71.8242 28.373L75.6914 38.8613C75.8151 39.2064 75.877 39.5189 75.877 39.7988C75.877 40.2025 75.737 40.5345 75.457 40.7949C75.1836 41.0553 74.832 41.1855 74.4023 41.1855C73.9857 41.1855 73.6569 41.0846 73.416 40.8828C73.1816 40.681 72.9993 40.349 72.8691 39.8867L72.127 37.6602H67.0391L66.2969 39.8574C66.1602 40.3262 65.9746 40.6647 65.7402 40.873C65.5059 41.0814 65.1934 41.1855 64.8027 41.1855ZM67.6836 35.375H71.4434L69.5781 29.6035H69.5098L67.6836 35.375ZM84.0117 25.834C83.224 25.834 82.5273 25.6517 81.9219 25.2871C81.3229 24.916 80.9355 24.4342 80.7598 23.8418C80.7012 23.6921 80.6719 23.5326 80.6719 23.3633C80.6719 23.1289 80.7467 22.9401 80.8965 22.7969C81.0462 22.6536 81.2415 22.582 81.4824 22.582C81.7038 22.582 81.8861 22.6374 82.0293 22.748C82.1725 22.8522 82.306 23.0312 82.4297 23.2852C82.7292 24.0534 83.2565 24.4375 84.0117 24.4375C84.7799 24.4375 85.3073 24.0534 85.5938 23.2852C85.7109 23.0312 85.8411 22.8522 85.9844 22.748C86.1276 22.6374 86.3132 22.582 86.541 22.582C86.7819 22.582 86.974 22.6536 87.1172 22.7969C87.2669 22.9336 87.3418 23.1159 87.3418 23.3438C87.3418 23.513 87.319 23.6693 87.2734 23.8125C87.1107 24.4115 86.7266 24.8997 86.1211 25.2773C85.5221 25.6484 84.819 25.834 84.0117 25.834ZM79.4121 41.1855C78.9238 41.1855 78.543 41.0456 78.2695 40.7656C78.0026 40.4857 77.8691 40.0885 77.8691 39.5742V28.2461C77.8691 27.7708 77.9993 27.3965 78.2598 27.123C78.5202 26.8496 78.8815 26.7129 79.3438 26.7129C79.7995 26.7129 80.1576 26.8496 80.418 27.123C80.6784 27.39 80.8086 27.7643 80.8086 28.2461V36.4492H80.9258L86.7949 27.6992C87.0358 27.3411 87.293 27.0872 87.5664 26.9375C87.8398 26.7878 88.1849 26.7129 88.6016 26.7129C89.0964 26.7129 89.4805 26.8561 89.7539 27.1426C90.0273 27.4225 90.1641 27.8132 90.1641 28.3145V39.6523C90.1641 40.1341 90.0339 40.5117 89.7734 40.7852C89.5195 41.0521 89.1615 41.1855 88.6992 41.1855C88.237 41.1855 87.8757 41.0521 87.6152 40.7852C87.3548 40.5117 87.2246 40.1341 87.2246 39.6523V31.4688H87.1074L81.248 40.1895C81.0072 40.554 80.7467 40.8112 80.4668 40.9609C80.1868 41.1107 79.8353 41.1855 79.4121 41.1855ZM94.1875 41C93.7253 41 93.3639 40.8665 93.1035 40.5996C92.8431 40.3262 92.7129 39.9453 92.7129 39.457V28.2559C92.7129 27.7741 92.8431 27.3965 93.1035 27.123C93.3639 26.8496 93.7253 26.7129 94.1875 26.7129C94.6497 26.7129 95.0111 26.8496 95.2715 27.123C95.5319 27.3965 95.6621 27.7741 95.6621 28.2559V38.5684H99.666V28.2559C99.666 27.7741 99.7962 27.3965 100.057 27.123C100.317 26.8496 100.678 26.7129 101.141 26.7129C101.603 26.7129 101.964 26.8496 102.225 27.123C102.485 27.3965 102.615 27.7741 102.615 28.2559V38.5684H106.619V28.2559C106.619 27.7741 106.749 27.3965 107.01 27.123C107.27 26.8496 107.632 26.7129 108.094 26.7129C108.556 26.7129 108.917 26.8496 109.178 27.123C109.438 27.3965 109.568 27.7741 109.568 28.2559V39.457C109.568 39.9453 109.438 40.3262 109.178 40.5996C108.917 40.8665 108.556 41 108.094 41H94.1875ZM113.045 41.1855C112.589 41.1855 112.225 41.0618 111.951 40.8145C111.684 40.5605 111.551 40.222 111.551 39.7988C111.551 39.5449 111.616 39.2324 111.746 38.8613L115.594 28.3828C115.802 27.8099 116.085 27.39 116.443 27.123C116.801 26.8496 117.257 26.7129 117.811 26.7129C118.383 26.7129 118.849 26.8464 119.207 27.1133C119.572 27.3737 119.858 27.7936 120.066 28.373L123.934 38.8613C124.057 39.2064 124.119 39.5189 124.119 39.7988C124.119 40.2025 123.979 40.5345 123.699 40.7949C123.426 41.0553 123.074 41.1855 122.645 41.1855C122.228 41.1855 121.899 41.0846 121.658 40.8828C121.424 40.681 121.242 40.349 121.111 39.8867L120.369 37.6602H115.281L114.539 39.8574C114.402 40.3262 114.217 40.6647 113.982 40.873C113.748 41.0814 113.436 41.1855 113.045 41.1855ZM115.926 35.375H119.686L117.82 29.6035H117.752L115.926 35.375ZM127.488 41.1855C127.065 41.1855 126.727 41.0716 126.473 40.8438C126.219 40.6094 126.092 40.3001 126.092 39.916C126.092 39.5775 126.209 39.2389 126.443 38.9004L128.963 35.4434C128.071 35.1439 127.361 34.6426 126.834 33.9395C126.307 33.2363 126.043 32.4095 126.043 31.459C126.043 30.0918 126.505 28.9915 127.43 28.1582C128.361 27.3249 129.604 26.9082 131.16 26.9082H135.467C135.929 26.9082 136.29 27.0449 136.551 27.3184C136.811 27.5853 136.941 27.9596 136.941 28.4414V39.6621C136.941 40.1374 136.811 40.5117 136.551 40.7852C136.297 41.0521 135.939 41.1855 135.477 41.1855C135.014 41.1855 134.653 41.0521 134.393 40.7852C134.139 40.5117 134.012 40.1374 134.012 39.6621V35.9121H131.922L128.914 40.2188C128.667 40.6029 128.439 40.86 128.23 40.9902C128.029 41.1204 127.781 41.1855 127.488 41.1855ZM134.012 33.7148V29.2227H131.58C130.792 29.2227 130.174 29.4245 129.725 29.8281C129.282 30.2253 129.061 30.7721 129.061 31.4688C129.061 32.1784 129.282 32.7318 129.725 33.1289C130.167 33.5195 130.786 33.7148 131.58 33.7148H134.012Z" fill="#5568D0"/>
<path fill-rule="evenodd" clip-rule="evenodd" d="M172.886 0.53572C167.924 2.18149 164.316 6.41712 163.388 11.6884C162.499 16.7364 165.05 22.2822 170.686 27.5548C172.955 29.6777 176.62 32.3374 177.276 32.3374C177.906 32.3374 181.505 29.7493 183.699 27.7179C189.331 22.5037 191.899 16.884 191.065 11.6002C190.357 7.11946 187.612 3.42949 183.457 1.37616C181.168 0.244655 180.603 0.108577 177.828 0.0190961C175.534 -0.0545143 174.267 0.0778502 172.886 0.53572ZM173.344 3.64357C167.892 5.80427 165.093 12.15 167.167 17.6468C168.159 20.2748 170.969 23.1355 173.393 23.9837C175.501 24.7215 179.011 24.7444 181.097 24.0336C183.257 23.2975 185.709 21.0014 186.873 18.6246C189.492 13.2757 187.578 7.21097 182.373 4.3638C179.573 2.83182 176.092 2.55427 173.344 3.64357ZM175.291 6.3219C173.587 6.74837 171.463 8.38671 170.606 9.93692C167.655 15.275 171.202 21.3384 177.276 21.3384C181.892 21.3384 184.82 18.3859 184.836 13.7154C184.842 11.8052 184.693 11.2271 183.836 9.84136C182.087 7.01141 178.477 5.52502 175.291 6.3219ZM175.419 9.49762C173.714 10.285 172.804 11.5445 172.648 13.3328C172.373 16.473 174.569 18.6682 177.709 18.3937C181.068 18.1002 183.061 14.3231 181.342 11.505C180.083 9.44021 177.464 8.55284 175.419 9.49762ZM155.14 14.1651C150.463 18.6081 147.14 24.6367 145.968 30.8065C145.402 33.7904 145.515 41.5705 146.149 43.1811C146.556 44.2144 147.388 44.6236 148.181 44.1799C148.675 43.9037 148.744 43.0707 148.75 37.3416C148.757 30.8669 148.765 30.7953 149.834 27.8215C151.386 23.5035 153.336 20.4585 156.912 16.7732C160.045 13.5442 160.418 12.9134 159.65 12.1452C158.765 11.2602 157.693 11.7407 155.14 14.1651ZM194.902 12.1452C194.123 12.9235 194.516 13.6323 197.208 16.3062C201.694 20.763 204.122 25.026 205.511 30.8919C205.944 32.717 206.014 34.2594 205.856 38.493C205.67 43.4769 205.697 43.8254 206.299 44.1475C207.174 44.6155 207.986 44.2404 208.395 43.1811C208.581 42.6956 208.819 40.3218 208.922 37.9062C209.068 34.5052 208.979 32.8669 208.531 30.6464C207.283 24.4632 204.473 19.3074 199.835 14.6946C196.858 11.7336 195.84 11.2072 194.902 12.1452ZM157.207 22.8586C155.971 24.2241 157.681 26.1106 159.233 25.0939C160.175 24.4767 160.295 23.5086 159.524 22.738C158.81 22.0235 157.921 22.0698 157.207 22.8586ZM195.027 22.738C194.305 23.46 194.36 24.3436 195.173 25.079C196.568 26.3412 198.608 24.2548 197.345 22.8586C196.631 22.0698 195.742 22.0235 195.027 22.738ZM158.029 23.5582C158.029 23.7439 158.181 23.8959 158.367 23.8959C158.552 23.8959 158.704 23.7439 158.704 23.5582C158.704 23.3725 158.552 23.2206 158.367 23.2206C158.181 23.2206 158.029 23.3725 158.029 23.5582ZM195.847 23.5582C195.847 23.7439 195.999 23.8959 196.185 23.8959C196.37 23.8959 196.522 23.7439 196.522 23.5582C196.522 23.3725 196.37 23.2206 196.185 23.2206C195.999 23.2206 195.847 23.3725 195.847 23.5582ZM160.156 28.793C159.176 29.4791 158.591 31.3214 159.006 32.4134C159.431 33.529 160.951 34.7011 161.974 34.7011C164.393 34.7011 165.924 32.4198 164.996 30.1987C164.724 29.5477 164.195 28.8511 163.82 28.6502C162.845 28.1285 161.002 28.2001 160.156 28.793ZM190.274 29.1006C188.653 30.7217 188.918 33.2302 190.813 34.2104C192.231 34.9438 193.353 34.8081 194.525 33.761C195.354 33.0205 195.577 32.5481 195.577 31.5355C195.577 28.7342 192.194 27.181 190.274 29.1006ZM161.779 29.7621C161.326 30.3081 161.628 31.3244 162.245 31.3244C162.48 31.3244 162.863 31.0965 163.094 30.818C163.429 30.4138 163.429 30.2091 163.094 29.805C162.573 29.1773 162.272 29.1675 161.779 29.7621ZM191.927 29.78C191.62 30.5806 192.054 31.3889 192.723 31.2603C193.526 31.1056 193.526 29.5173 192.723 29.3626C192.397 29.2998 192.039 29.4876 191.927 29.78ZM167.615 34.669C166.334 35.45 165.575 36.4957 163.976 39.6816C163.251 41.1261 162.535 42.1296 162.229 42.1296C160.416 42.1296 158.704 44.1708 158.704 46.3335C158.704 46.993 158.622 47.5322 158.522 47.5322C158.422 47.5322 157.7 47.1959 156.918 46.785C154.97 45.7612 151.654 45.7497 149.733 46.7607C148.11 47.6146 146.205 49.6291 145.57 51.1645C145.243 51.9519 144.897 52.2595 144.337 52.2595C142.877 52.2595 141.902 54.0609 142.919 54.8811C143.151 55.0685 144.784 55.2863 146.548 55.3653C150.479 55.5413 151.274 55.915 154.652 59.1752C158.765 63.1444 162.765 65.3612 168.83 67.0333C171.648 67.8099 172.685 67.9193 177.276 67.9264C181.683 67.9331 182.96 67.8126 185.361 67.1639C191.619 65.4729 195.449 63.3537 200.036 59.0431C203.598 55.6949 204.522 55.2985 208.76 55.2985C211.292 55.2985 212.055 54.9824 212.055 53.9326C212.055 53.1756 210.98 52.2595 210.091 52.2595C209.585 52.2595 209.22 51.9168 208.894 51.1375C208.224 49.5346 206.435 47.6109 204.827 46.7651C202.741 45.6677 199.553 45.7339 197.451 46.9184L195.847 47.8223L195.846 46.4112C195.844 44.0671 194.833 42.8769 192.126 42.0331C191.844 41.9449 191.017 40.6983 190.288 39.2626C187.576 33.9187 187.846 34.0254 177.033 34.0271C169.412 34.0281 168.571 34.0855 167.615 34.669ZM154.652 35.27C152.5 36.0868 151.836 39.0951 153.516 40.4167C155.6 42.0564 158.434 40.7966 158.434 38.2303C158.434 36.3056 156.309 34.6416 154.652 35.27ZM198.211 35.27C196.135 36.0578 195.433 38.9418 196.966 40.3826C198.099 41.4466 200.201 41.3888 201.257 40.2641C202.32 39.1332 202.293 37.2737 201.197 36.1966C200.351 35.3639 199.037 34.9567 198.211 35.27ZM154.99 37.0448C154.99 37.896 155.569 38.2404 156.166 37.7444C156.781 37.2342 156.446 36.3894 155.629 36.3894C155.222 36.3894 154.99 36.6268 154.99 37.0448ZM198.436 36.8712C198.334 37.1363 198.477 37.5411 198.754 37.7708C199.16 38.1071 199.361 38.0851 199.787 37.659C200.078 37.3679 200.214 36.9631 200.088 36.7595C199.76 36.2283 198.654 36.3029 198.436 36.8712ZM168.962 37.323C168.616 37.5499 166.47 41.5354 166.47 41.951C166.47 42.0493 171.333 42.1296 177.276 42.1296C183.219 42.1296 188.081 42.0486 188.081 41.9497C188.081 41.8504 187.684 40.9769 187.198 40.0081C185.62 36.8574 186.315 37.064 177.308 37.0698C172.926 37.0728 169.17 37.1866 168.962 37.323ZM162.672 45.2233C161.829 45.5313 161.743 45.7176 161.743 47.2364V48.9102L162.672 48.0465C164.357 46.4787 166.789 46.1421 169.042 47.1652C170.38 47.7727 172.211 49.7102 172.211 50.5185C172.211 51.0169 172.422 51.0048 174.068 50.4122C175.854 49.7686 178.529 49.7716 180.356 50.4199C181.726 50.9055 181.859 50.9011 182.172 50.3622C182.357 50.0424 183.02 49.2003 183.643 48.4909C185.679 46.1748 189.359 45.9246 191.661 47.9459L192.849 48.9893L192.744 47.3401C192.657 45.9746 192.494 45.618 191.795 45.2662C190.731 44.7303 164.129 44.6912 162.672 45.2233ZM151.046 49.5822C149.349 50.422 148.254 51.8486 148.961 52.2967C149.213 52.4564 149.672 52.5891 149.981 52.5921C151.458 52.6056 153.799 54.115 156.924 57.0688C159.626 59.6219 160.913 60.5576 163.466 61.8248C165.214 62.6926 166.89 63.4024 167.189 63.4024C168.426 63.4024 168.167 58.6791 166.809 56.4816C165.425 54.2429 161.261 52.5637 159.516 53.5406C158.969 53.8465 158.777 53.6652 158.036 52.1474C157.371 50.7843 156.855 50.2359 155.678 49.6426C153.812 48.7016 152.851 48.6887 151.046 49.5822ZM198.873 49.6426C197.694 50.2369 197.181 50.7839 196.511 52.1558C195.843 53.5241 195.547 53.8404 195.16 53.596C194.501 53.179 192.933 53.1948 191.351 53.6341C188.39 54.456 186.038 58.5123 186.549 61.9156C186.837 63.8393 187.199 63.8322 191.124 61.8262C193.464 60.6302 195.011 59.4993 197.532 57.1424C200.728 54.1545 203.097 52.6029 204.48 52.5921C204.839 52.5891 205.339 52.4564 205.59 52.2967C206.743 51.5663 203.304 48.8829 201.215 48.8829C200.755 48.8829 199.702 49.2246 198.873 49.6426ZM165.239 49.8935C164.015 50.3875 164.069 50.789 165.442 51.4083C166.166 51.7348 167.176 52.4371 167.685 52.9689C168.393 53.7081 168.717 53.8479 169.06 53.5625C169.875 52.8862 169.59 51.3745 168.47 50.4324C167.402 49.5329 166.504 49.3833 165.239 49.8935ZM186.561 49.9482C185.135 50.7285 184.596 52.3821 185.37 53.6061C185.634 54.0245 185.876 53.9269 186.808 53.0233C187.424 52.426 188.522 51.6487 189.248 51.2951L190.569 50.6529L189.511 50.1056C188.285 49.4718 187.508 49.4302 186.561 49.9482ZM174.743 53.3218C173.387 53.8229 171.635 55.1573 171.156 56.0528C170.576 57.1354 170.563 64.3586 171.14 64.5801C172.499 65.1018 177.739 65.3959 180.173 65.0873C184 64.6021 184.049 64.5774 183.764 63.299C183.457 61.9207 183.461 60.2267 183.775 58.4671C184.088 56.7079 183.14 55.1546 181.047 53.9988C179.392 53.0854 176.285 52.7515 174.743 53.3218ZM144.864 59.8525C144.262 60.5775 144.707 61.4449 145.615 61.3156C146.48 61.1924 146.843 60.0825 146.159 59.6493C145.527 59.2481 145.341 59.2771 144.864 59.8525ZM150.266 59.8525C149.208 61.1279 151.187 63.1066 152.462 62.048C153.067 61.5462 153.119 60.3155 152.559 59.7556C151.999 59.1958 150.768 59.2478 150.266 59.8525ZM201.993 59.7556C201.433 60.3155 201.485 61.5462 202.089 62.048C202.766 62.6095 204.192 62.2114 204.454 61.3882C204.93 59.8887 203.084 58.6643 201.993 59.7556ZM208.06 59.9413C207.623 60.7922 207.94 61.3764 208.839 61.3764C209.747 61.3764 210.213 60.4853 209.656 59.814C209.127 59.1769 208.425 59.2329 208.06 59.9413ZM154.713 64.8374C154.784 65.3362 155.053 65.5972 155.496 65.5972C155.94 65.5972 156.209 65.3362 156.28 64.8374C156.368 64.2141 156.227 64.0777 155.496 64.0777C154.765 64.0777 154.625 64.2141 154.713 64.8374ZM198.272 64.8374C198.342 65.3362 198.612 65.5972 199.055 65.5972C199.498 65.5972 199.767 65.3362 199.838 64.8374C199.927 64.2141 199.786 64.0777 199.055 64.0777C198.324 64.0777 198.183 64.2141 198.272 64.8374Z" fill="#5568D0"/>
<path d="M219.174 41.1855C218.718 41.1855 218.354 41.0618 218.08 40.8145C217.813 40.5605 217.68 40.222 217.68 39.7988C217.68 39.5449 217.745 39.2324 217.875 38.8613L221.723 28.3828C221.931 27.8099 222.214 27.39 222.572 27.123C222.93 26.8496 223.386 26.7129 223.939 26.7129C224.512 26.7129 224.978 26.8464 225.336 27.1133C225.701 27.3737 225.987 27.7936 226.195 28.373L230.062 38.8613C230.186 39.2064 230.248 39.5189 230.248 39.7988C230.248 40.2025 230.108 40.5345 229.828 40.7949C229.555 41.0553 229.203 41.1855 228.773 41.1855C228.357 41.1855 228.028 41.0846 227.787 40.8828C227.553 40.681 227.37 40.349 227.24 39.8867L226.498 37.6602H221.41L220.668 39.8574C220.531 40.3262 220.346 40.6647 220.111 40.873C219.877 41.0814 219.564 41.1855 219.174 41.1855ZM222.055 35.375H225.814L223.949 29.6035H223.881L222.055 35.375ZM233.715 41C233.253 41 232.891 40.8665 232.631 40.5996C232.37 40.3262 232.24 39.9453 232.24 39.457V28.4414C232.24 27.9596 232.37 27.5853 232.631 27.3184C232.891 27.0449 233.253 26.9082 233.715 26.9082H238.373C239.695 26.9082 240.743 27.224 241.518 27.8555C242.292 28.487 242.68 29.3431 242.68 30.4238C242.68 31.1921 242.426 31.8659 241.918 32.4453C241.417 33.0247 240.788 33.3698 240.033 33.4805V33.5586C240.997 33.6302 241.791 33.985 242.416 34.623C243.041 35.2611 243.354 36.0423 243.354 36.9668C243.354 38.2103 242.917 39.1934 242.045 39.916C241.173 40.6387 239.984 41 238.48 41H233.715ZM235.189 32.7676H237.309C238.096 32.7676 238.705 32.6048 239.135 32.2793C239.564 31.9473 239.779 31.4818 239.779 30.8828C239.779 30.3164 239.59 29.8802 239.213 29.5742C238.835 29.2617 238.301 29.1055 237.611 29.1055H235.189V32.7676ZM235.189 38.8027H237.729C238.581 38.8027 239.229 38.627 239.672 38.2754C240.121 37.9173 240.346 37.403 240.346 36.7324C240.346 36.0749 240.115 35.5736 239.652 35.2285C239.197 34.8835 238.533 34.7109 237.66 34.7109H235.189V38.8027ZM250.609 40.7852C250.349 41.0521 249.988 41.1855 249.525 41.1855C249.063 41.1855 248.702 41.0521 248.441 40.7852C248.181 40.5117 248.051 40.1341 248.051 39.6523V29.3496H245.141C244.737 29.3496 244.411 29.2422 244.164 29.0273C243.923 28.806 243.803 28.5065 243.803 28.1289C243.803 27.7513 243.923 27.4551 244.164 27.2402C244.405 27.0189 244.73 26.9082 245.141 26.9082H253.92C254.324 26.9082 254.646 27.0189 254.887 27.2402C255.128 27.4551 255.248 27.7513 255.248 28.1289C255.248 28.5065 255.124 28.806 254.877 29.0273C254.636 29.2422 254.317 29.3496 253.92 29.3496H251V39.6523C251 40.1341 250.87 40.5117 250.609 40.7852ZM267.387 39.2812C266.169 40.5833 264.516 41.2344 262.426 41.2344C260.336 41.2344 258.679 40.5833 257.455 39.2812C256.238 37.9727 255.629 36.1986 255.629 33.959C255.629 31.7129 256.238 29.9355 257.455 28.627C258.679 27.3184 260.336 26.6641 262.426 26.6641C264.516 26.6641 266.169 27.3184 267.387 28.627C268.611 29.9355 269.223 31.7129 269.223 33.959C269.223 36.1986 268.611 37.9727 267.387 39.2812ZM262.426 38.7734C263.578 38.7734 264.496 38.3405 265.18 37.4746C265.863 36.6022 266.205 35.4303 266.205 33.959C266.205 32.4811 265.863 31.306 265.18 30.4336C264.496 29.5612 263.578 29.125 262.426 29.125C261.273 29.125 260.352 29.5612 259.662 30.4336C258.979 31.306 258.637 32.4811 258.637 33.959C258.637 35.4303 258.979 36.6022 259.662 37.4746C260.346 38.3405 261.267 38.7734 262.426 38.7734ZM273.607 40.8242C273.38 41.0651 273.057 41.1855 272.641 41.1855C272.224 41.1855 271.898 41.0651 271.664 40.8242C271.436 40.5833 271.322 40.2448 271.322 39.8086V28.6172C271.322 28.0182 271.488 27.5527 271.82 27.2207C272.159 26.8822 272.628 26.7129 273.227 26.7129C273.741 26.7129 274.151 26.8301 274.457 27.0645C274.77 27.2988 275.033 27.6895 275.248 28.2363L278.744 36.8984H278.822L282.309 28.2363C282.523 27.6895 282.787 27.2988 283.1 27.0645C283.419 26.8301 283.835 26.7129 284.35 26.7129C284.949 26.7129 285.414 26.8822 285.746 27.2207C286.078 27.5527 286.244 28.0182 286.244 28.6172V39.8086C286.244 40.2448 286.127 40.5833 285.893 40.8242C285.665 41.0651 285.342 41.1855 284.926 41.1855C284.509 41.1855 284.187 41.0651 283.959 40.8242C283.731 40.5833 283.617 40.2448 283.617 39.8086V31.4883H283.539L280.053 40.0137C279.812 40.6126 279.392 40.9121 278.793 40.9121C278.181 40.9121 277.755 40.6159 277.514 40.0234L274.027 31.4883H273.949V39.8086C273.949 40.2448 273.835 40.5833 273.607 40.8242ZM300.102 39.2812C298.884 40.5833 297.23 41.2344 295.141 41.2344C293.051 41.2344 291.394 40.5833 290.17 39.2812C288.952 37.9727 288.344 36.1986 288.344 33.959C288.344 31.7129 288.952 29.9355 290.17 28.627C291.394 27.3184 293.051 26.6641 295.141 26.6641C297.23 26.6641 298.884 27.3184 300.102 28.627C301.326 29.9355 301.938 31.7129 301.938 33.959C301.938 36.1986 301.326 37.9727 300.102 39.2812ZM295.141 38.7734C296.293 38.7734 297.211 38.3405 297.895 37.4746C298.578 36.6022 298.92 35.4303 298.92 33.959C298.92 32.4811 298.578 31.306 297.895 30.4336C297.211 29.5612 296.293 29.125 295.141 29.125C293.988 29.125 293.067 29.5612 292.377 30.4336C291.693 31.306 291.352 32.4811 291.352 33.959C291.352 35.4303 291.693 36.6022 292.377 37.4746C293.061 38.3405 293.982 38.7734 295.141 38.7734ZM310.18 25.834C309.392 25.834 308.695 25.6517 308.09 25.2871C307.491 24.916 307.104 24.4342 306.928 23.8418C306.869 23.6921 306.84 23.5326 306.84 23.3633C306.84 23.1289 306.915 22.9401 307.064 22.7969C307.214 22.6536 307.41 22.582 307.65 22.582C307.872 22.582 308.054 22.6374 308.197 22.748C308.34 22.8522 308.474 23.0312 308.598 23.2852C308.897 24.0534 309.424 24.4375 310.18 24.4375C310.948 24.4375 311.475 24.0534 311.762 23.2852C311.879 23.0312 312.009 22.8522 312.152 22.748C312.296 22.6374 312.481 22.582 312.709 22.582C312.95 22.582 313.142 22.6536 313.285 22.7969C313.435 22.9336 313.51 23.1159 313.51 23.3438C313.51 23.513 313.487 23.6693 313.441 23.8125C313.279 24.4115 312.895 24.8997 312.289 25.2773C311.69 25.6484 310.987 25.834 310.18 25.834ZM305.58 41.1855C305.092 41.1855 304.711 41.0456 304.438 40.7656C304.171 40.4857 304.037 40.0885 304.037 39.5742V28.2461C304.037 27.7708 304.167 27.3965 304.428 27.123C304.688 26.8496 305.049 26.7129 305.512 26.7129C305.967 26.7129 306.326 26.8496 306.586 27.123C306.846 27.39 306.977 27.7643 306.977 28.2461V36.4492H307.094L312.963 27.6992C313.204 27.3411 313.461 27.0872 313.734 26.9375C314.008 26.7878 314.353 26.7129 314.77 26.7129C315.264 26.7129 315.648 26.8561 315.922 27.1426C316.195 27.4225 316.332 27.8132 316.332 28.3145V39.6523C316.332 40.1341 316.202 40.5117 315.941 40.7852C315.688 41.0521 315.329 41.1855 314.867 41.1855C314.405 41.1855 314.044 41.0521 313.783 40.7852C313.523 40.5117 313.393 40.1341 313.393 39.6523V31.4688H313.275L307.416 40.1895C307.175 40.554 306.915 40.8112 306.635 40.9609C306.355 41.1107 306.003 41.1855 305.58 41.1855ZM321.439 40.7852C321.179 41.0521 320.818 41.1855 320.355 41.1855C319.893 41.1855 319.532 41.0521 319.271 40.7852C319.011 40.5117 318.881 40.1341 318.881 39.6523V28.2559C318.881 27.7741 319.011 27.3965 319.271 27.123C319.532 26.8496 319.893 26.7129 320.355 26.7129C320.818 26.7129 321.179 26.8496 321.439 27.123C321.7 27.3965 321.83 27.7741 321.83 28.2559V32.875H321.908L327.26 27.3867C327.514 27.1263 327.722 26.9505 327.885 26.8594C328.054 26.7617 328.249 26.7129 328.471 26.7129C328.829 26.7129 329.135 26.8268 329.389 27.0547C329.643 27.2826 329.77 27.5592 329.77 27.8848C329.77 28.2493 329.623 28.5781 329.33 28.8711L324.604 33.5781L329.662 38.7734C329.955 39.099 330.102 39.4342 330.102 39.7793C330.102 40.1829 329.968 40.5182 329.701 40.7852C329.441 41.0521 329.112 41.1855 328.715 41.1855C328.454 41.1855 328.227 41.1302 328.031 41.0195C327.842 40.9154 327.608 40.7168 327.328 40.4238L321.908 34.8086H321.83V39.6523C321.83 40.1341 321.7 40.5117 321.439 40.7852ZM333.236 41.1855C332.781 41.1855 332.416 41.0618 332.143 40.8145C331.876 40.5605 331.742 40.222 331.742 39.7988C331.742 39.5449 331.807 39.2324 331.938 38.8613L335.785 28.3828C335.993 27.8099 336.277 27.39 336.635 27.123C336.993 26.8496 337.449 26.7129 338.002 26.7129C338.575 26.7129 339.04 26.8464 339.398 27.1133C339.763 27.3737 340.049 27.7936 340.258 28.373L344.125 38.8613C344.249 39.2064 344.311 39.5189 344.311 39.7988C344.311 40.2025 344.171 40.5345 343.891 40.7949C343.617 41.0553 343.266 41.1855 342.836 41.1855C342.419 41.1855 342.09 41.0846 341.85 40.8828C341.615 40.681 341.433 40.349 341.303 39.8867L340.561 37.6602H335.473L334.73 39.8574C334.594 40.3262 334.408 40.6647 334.174 40.873C333.939 41.0814 333.627 41.1855 333.236 41.1855ZM336.117 35.375H339.877L338.012 29.6035H337.943L336.117 35.375Z" fill="#5568D0"/>
</svg>
