<svg width="36" height="36" viewBox="0 0 36 36" fill="none" xmlns="http://www.w3.org/2000/svg">
<path d="M18 2.25L4.5 6.75V20.25C4.5 27.7066 10.5434 33.75 18 33.75C25.4566 33.75 31.5 27.7066 31.5 20.25V6.75L18 2.25ZM28.9688 20.25C28.9688 26.3074 24.0574 31.2188 18 31.2188C11.9426 31.2188 7.03125 26.3074 7.03125 20.25V8.64844L18 4.78125L28.9688 8.64844V20.25Z" fill="#5568D0"/>
<path d="M13.3029 16.7022C13.1856 16.5844 13.0461 16.4909 12.8926 16.4271C12.739 16.3633 12.5744 16.3304 12.4081 16.3304C12.2419 16.3304 12.0772 16.3633 11.9237 16.4271C11.7701 16.4909 11.6307 16.5844 11.5134 16.7022C11.3956 16.8196 11.3021 16.959 11.2383 17.1125C11.1744 17.2661 11.1416 17.4307 11.1416 17.597C11.1416 17.7632 11.1744 17.9279 11.2383 18.0814C11.3021 18.235 11.3956 18.3744 11.5134 18.4917L16.0626 23.0409L16.1365 23.1147C16.2474 23.2259 16.3792 23.3141 16.5243 23.3743C16.6694 23.4345 16.8249 23.4654 16.982 23.4654C17.139 23.4654 17.2946 23.4345 17.4396 23.3743C17.5847 23.3141 17.7165 23.2259 17.8275 23.1147L25.6849 15.2573C25.7961 15.1464 25.8842 15.0146 25.9444 14.8695C26.0046 14.7244 26.0356 14.5689 26.0356 14.4118C26.0356 14.2548 26.0046 14.0992 25.9444 13.9541C25.8842 13.8091 25.7961 13.6773 25.6849 13.5663L25.5865 13.4679C25.4755 13.3567 25.3437 13.2685 25.1986 13.2083C25.0535 13.1482 24.898 13.1172 24.7409 13.1172C24.5839 13.1172 24.4284 13.1482 24.2833 13.2083C24.1382 13.2685 24.0064 13.3567 23.8954 13.4679L16.9802 20.3796L13.3029 16.7022Z" fill="#5568D0"/>
</svg>
