<svg width="36" height="36" viewBox="0 0 36 36" fill="none" xmlns="http://www.w3.org/2000/svg">
<path d="M13.5 7.5C13.5 8.29565 13.8161 9.05871 14.3787 9.62132C14.9413 10.1839 15.7044 10.5 16.5 10.5C17.2956 10.5 18.0587 10.1839 18.6213 9.62132C19.1839 9.05871 19.5 8.29565 19.5 7.5C19.5 6.70435 19.1839 5.94129 18.6213 5.37868C18.0587 4.81607 17.2956 4.5 16.5 4.5C15.7044 4.5 14.9413 4.81607 14.3787 5.37868C13.8161 5.94129 13.5 6.70435 13.5 7.5Z" stroke="#5568D0" stroke-width="2" stroke-linecap="round" stroke-linejoin="round"/>
<path d="M16.4995 10.5V22.5H22.4995L28.4995 30M16.4995 16.5H23.9995M10.4995 17.25C9.42477 17.6951 8.46827 18.3841 7.70566 19.2625C6.94305 20.1409 6.39522 21.1847 6.10549 22.3113C5.81576 23.4379 5.79207 24.6165 6.03628 25.7539C6.2805 26.8912 6.78593 27.9562 7.51263 28.8645C8.23932 29.7729 9.16735 30.4998 10.2233 30.9877C11.2793 31.4756 12.4344 31.7112 13.5971 31.6758C14.7598 31.6405 15.8984 31.3351 16.9228 30.784C17.9472 30.2328 18.8294 29.4508 19.4995 28.5" stroke="#5568D0" stroke-width="2" stroke-linecap="round" stroke-linejoin="round"/>
</svg>
