<svg width="36" height="36" viewBox="0 0 36 36" fill="none" xmlns="http://www.w3.org/2000/svg">
<path d="M17.9997 30.6346C17.3537 30.6346 16.8077 30.4116 16.3617 29.9656C15.9157 29.5196 15.6927 28.9736 15.6927 28.3276C15.6927 27.6806 15.9157 27.1341 16.3617 26.6881C16.8077 26.2421 17.3537 26.0191 17.9997 26.0191C18.6457 26.0191 19.1917 26.2421 19.6377 26.6881C20.0837 27.1341 20.3067 27.6806 20.3067 28.3276C20.3067 28.9736 20.0837 29.5196 19.6377 29.9656C19.1917 30.4116 18.6457 30.6346 17.9997 30.6346ZM10.3346 22.2845C9.87 22.6724 9.17849 22.6748 8.75301 22.2443C8.33102 21.8174 8.33037 21.1262 8.78505 20.7342C9.89331 19.7789 11.1304 19.0055 12.4962 18.4141C14.1982 17.6761 16.0342 17.3071 18.0042 17.3071C19.9742 17.3071 21.8092 17.6771 23.5092 18.4171C24.873 19.0122 26.109 19.7902 27.2172 20.751C27.6698 21.1434 27.6664 21.8334 27.2429 22.257C26.8186 22.6812 26.1338 22.6768 25.6737 22.2918C24.7684 21.5344 23.7604 20.9163 22.6497 20.4376C21.1997 19.8126 19.6497 19.5001 17.9997 19.5001C16.3497 19.5001 14.7997 19.8126 13.3497 20.4376C12.2427 20.9148 11.2376 21.5304 10.3346 22.2845ZM3.93731 15.902C3.49191 16.3041 2.80589 16.3062 2.38158 15.8819C1.95799 15.4583 1.95528 14.7698 2.39688 14.365C4.30458 12.6162 6.48153 11.2064 8.92773 10.1356C11.7137 8.91759 14.7377 8.30859 17.9997 8.30859C21.2617 8.30859 24.2857 8.91859 27.0717 10.1386C29.518 11.2086 31.695 12.6179 33.6028 14.3667C34.0442 14.7713 34.0413 15.4596 33.6177 15.8829C33.1935 16.3067 32.508 16.3042 32.0631 15.9021C30.3241 14.3308 28.3553 13.0741 26.1567 12.1321C23.6197 11.0451 20.9007 10.5011 17.9997 10.5001C15.0997 10.5001 12.3812 11.0441 9.84423 12.1321C7.64587 13.0749 5.6769 14.3315 3.93731 15.902Z" fill="#5568D0"/>
</svg>
